# xmcd
#
# Track frame offsets:
#	150
#	11447
#	42957
#	57285
#	77825
#	83917
#	107850
#
# Disc length: 2039 seconds
#
# Revision: 1
# Processed by: cddbd v1.5.1PL2 Copyright (c) Steve Scherf et al.
# Submitted via: EasyCDDAExtractor 9.0.0.1
#
DISCID=4e07f507
DTITLE=Rainbow - Folkets Park Lidköping 09-08-96 Disc 2
DYEAR=1996
DGENRE=Hard Rock
TTITLE0=Lazy
TTITLE1=Perfect Strangers
TTITLE2=Blues
TTITLE3=Burn
TTITLE4=Maybe Next Time
TTITLE5=Streets Of Dream
TTITLE6=Smoke On The Water
EXTD=
EXTT0=
EXTT1=
EXTT2=
EXTT3=
EXTT4=
EXTT5=
EXTT6=
PLAYORDER=
